{"title":"You're Next 2013 HDRiP XViD [P2PDL]","uid":9411989,"size":737994752,"categoryP":"video","categoryS":"movies","magnet":"?xt=urn:btih:58806f7825eb1b21ac224c65011768eee2984eed&amp;dn=You%27re+Next+2013+HDRiP+XViD+%5BP2PDL%5D&amp;tr=udp%3A%2F%2Ftracker.openbittorrent.com%3A80&amp;tr=udp%3A%2F%2Fopen.demonii.com%3A1337&amp;tr=udp%3A%2F%2Ftracker.coppersurfer.tk%3A6969&amp;tr=udp%3A%2F%2Fexodus.desync.com%3A6969","seeders":5,"leechers":4,"uploader":"TeX","files":2,"time":1388326889,"description":" &lt;a href=&quot;http://www.imdb.com/title/tt1853739/&quot; rel=&quot;nofollow&quot; target=&quot;_NEW&quot;&gt;http://www.imdb.com/title/tt1853739/&lt;/a&gt;\n\nWhen the Davison family comes under attack\nduring their wedding anniversary getaway, the\ngang of mysterious killers soon learns that one\nof victims harbors a secret talent for fighting back.\n\nPROPS TO ORIGINAL ENCODER / UPLOADER.\n\nGeneral\nComplete name                            : You're Next 2013 HDRiP XViD\nFormat                                   : AVI\nFormat/Info                              : Audio Video Interleave\nFormat profile                           : OpenDML\nFormat settings                          : rec\nFile size                                : 698 MiB\nDuration                                 : 1h 34mn\nOverall bit rate                         : 1 033 Kbps\nWriting application                      : AVI-Mux GUI 1.17.7, Aug  8 2006  20:59:17\n\nVideo\nID                                       : 0\nFormat                                   : MPEG-4 Visual\nFormat profile                           : Advanced Simple@L5\nFormat settings, BVOP                    : 2\nFormat settings, QPel                    : No\nFormat settings, GMC                     : No warppoints\nFormat settings, Matrix                  : Default (MPEG)\nMuxing mode                              : Packed bitstream\nCodec ID                                 : XVID\nCodec ID/Hint                            : XviD\nDuration                                 : 1h 34mn\nBit rate                                 : 900 Kbps\nWidth                                    : 702 pixels\nHeight                                   : 294 pixels\nDisplay aspect ratio                     : 2.40:1\nFrame rate                               : 23.976 fps\nColor space                              : YUV\nChroma subsampling                       : 4:2:0\nBit depth                                : 8 bits\nScan type                                : Progressive\nCompression mode                         : Lossy\nBits/(Pixel*Frame)                       : 0.182\nStream size                              : 608 MiB (87%)\nWriting library                          : XviD 64\n\nAudio\nID                                       : 1\nFormat                                   : AC-3\nFormat/Info                              : Audio Coding 3\nMode extension                           : CM (complete main)\nFormat settings, Endianness              : Big\nCodec ID                                 : 2000\nDuration                                 : 1h 34mn\nSource duration                          : 1h 26mn\nBit rate mode                            : Constant\nBit rate                                 : 128 Kbps\nChannel(s)                               : 2 channels\nChannel positions                        : Front: L R\nSampling rate                            : 44.1 KHz\nBit depth                                : 16 bits\nCompression mode                         : Lossy\nStream size                              : 86.5 MiB (12%)\nAlignment                                : Aligned on interleaves\nInterleave, duration                     : 70 ms (1.67 video frames)\nInterleave, preload duration             : 192 ms","torrent":{"xt":"urn:btih:58806f7825eb1b21ac224c65011768eee2984eed","amp;dn":"You%27re+Next+2013+HDRiP+XViD+%5BP2PDL%5D","amp;tr":["udp%3A%2F%2Ftracker.openbittorrent.com%3A80","udp%3A%2F%2Fopen.demonii.com%3A1337","udp%3A%2F%2Ftracker.coppersurfer.tk%3A6969","udp%3A%2F%2Fexodus.desync.com%3A6969"],"infoHash":"58806f7825eb1b21ac224c65011768eee2984eed","infoHashBuffer":{"type":"Buffer","data":[88,128,111,120,37,235,27,33,172,34,76,101,1,23,104,238,226,152,78,237]},"announce":[],"urlList":[]}}